<svg viewBox="0 0 24 24" fill="none" xmlns="http://www.w3.org/2000/svg">
<path d="M9.75 17.25C13.8921 17.25 17.25 13.8921 17.25 9.75C17.25 5.60786 13.8921 2.25 9.75 2.25C5.60786 2.25 2.25 5.60786 2.25 9.75C2.25 13.8921 5.60786 17.25 9.75 17.25Z" stroke="currentColor" stroke-width="2" stroke-miterlimit="10" stroke-linecap="round" stroke-linejoin="round"/>
<path d="M16.8 7.19922C17.775 7.57422 18.75 8.17422 19.575 8.92422C22.5 11.8492 22.5 16.5742 19.575 19.4992C16.65 22.4242 11.925 22.4242 9 19.4992" stroke="currentColor" stroke-width="2" stroke-miterlimit="10" stroke-linecap="round" stroke-linejoin="round"/>
<path d="M7.20004 16.7991C6.22504 14.1741 6.82504 11.0991 8.92504 8.92407C11.025 6.82407 14.1 6.22407 16.8 7.19907" stroke="currentColor" stroke-width="2" stroke-miterlimit="10" stroke-linecap="round" stroke-linejoin="round" stroke-dasharray="4 4"/>
</svg>
