<svg viewBox="0 0 24 24" xmlns="http://www.w3.org/2000/svg"><path fill="currentColor" d="M6.33531 4.21155C8.62813 5.97133 11.0947 9.53897 12 11.4535V16.5103C12 16.4027 11.9594 16.5243 11.8719 16.7863C11.3994 18.2051 9.55375 23.7423 5.33344 19.3157C3.11125 16.985 4.14 14.6543 8.185 13.9507C5.87094 14.3531 3.26937 13.688 2.55562 11.0803C2.35 10.3302 2 5.70961 2 5.08555C2 1.95953 4.68094 2.9421 6.33531 4.21155ZM17.6647 4.21155C15.3719 5.97133 12.9053 9.53897 12 11.4535V16.5103C12 16.4027 12.0406 16.5243 12.1281 16.7863C12.6006 18.2051 14.4463 23.7423 18.6666 19.3157C20.8888 16.985 19.86 14.6543 15.815 13.9507C18.1291 14.3531 20.7306 13.688 21.4444 11.0803C21.65 10.3302 22 5.70961 22 5.08555C22 1.95953 19.3194 2.9421 17.6647 4.21155Z" fill="black"/></svg>