<svg viewBox="0 0 24 24" fill="none" xmlns="http://www.w3.org/2000/svg">
<path d="M7 4V8M7 8C7 9.10457 7.89543 10 9 10H12M7 8C7 6.89543 6.10457 6 5 6C3.89543 6 3 6.89543 3 8C3 9.10457 3.89543 10 5 10C6.10457 10 7 9.10457 7 8ZM17 20V16M17 16C17 14.8954 16.1046 14 15 14H12M17 16C17 17.1046 17.8954 18 19 18C20.1046 18 21 17.1046 21 16C21 14.8954 20.1046 14 19 14C17.8954 14 17 14.8954 17 16ZM17 4V8M17 8C17 9.10457 17.8954 10 19 10C20.1046 10 21 9.10457 21 8C21 6.89543 20.1046 6 19 6C17.8954 6 17 6.89543 17 8ZM17 8C17 9.10457 16.1046 10 15 10H12M12 10V14" stroke="currentColor" stroke-width="2" stroke-linecap="round" stroke-linejoin="round"/>
</svg>