<svg viewBox="0 0 200 200" fill="none" xmlns="http://www.w3.org/2000/svg">
<path d="M141.312 111.191C141.373 111.053 141.458 110.926 141.562 110.816C141.635 110.705 141.719 110.6 141.812 110.504L142.187 110.129C142.343 110.004 142.468 109.848 142.656 109.723C142.937 109.473 143.281 109.191 143.656 108.91C144.093 108.598 144.562 108.285 145.062 107.941C145.968 107.316 146.968 106.66 147.968 106.066C148.968 105.473 149.968 104.816 150.875 104.285C162.406 97.3788 181.625 85.8475 174.812 62.1288C174.751 61.8375 174.657 61.5544 174.531 61.285C174.496 61.1194 174.432 60.9606 174.343 60.8163C174.304 60.6963 174.252 60.581 174.187 60.4725C166.472 46.4488 154.786 35.0163 140.597 27.6096C126.408 20.2028 110.348 17.1519 94.4311 18.8398C78.5145 20.5276 63.4508 26.879 51.1308 37.0969C38.8105 47.3147 29.7829 60.9438 25.1804 76.2738C20.578 91.6038 20.606 107.952 25.2607 123.266C29.9155 138.58 38.9898 152.178 51.3448 162.353C63.6995 172.529 78.7848 178.829 94.707 180.463C110.63 182.096 126.68 178.99 140.843 171.535C141.131 171.41 141.403 171.253 141.656 171.066C141.745 171.012 141.828 170.949 141.906 170.879C150.187 165.004 157.656 153.379 151.5 139.91C149.812 136.223 148.218 133.035 146.781 130.254C144.883 126.846 143.283 123.281 142 119.598C141.845 119.137 141.72 118.668 141.625 118.191C141.08 115.92 140.964 113.568 141.281 111.254C141.281 111.223 141.312 111.223 141.312 111.191ZM56.2808 99.6288C56.2808 96.755 57.133 93.9453 58.7298 91.5556C60.3264 89.1663 62.5958 87.3035 65.2511 86.2038C67.9064 85.1041 70.8283 84.8163 73.647 85.3769C76.4658 85.9375 79.0548 87.3216 81.0873 89.3538C83.1195 91.386 84.5033 93.9753 85.0639 96.7941C85.6248 99.6128 85.337 102.534 84.237 105.19C83.1373 107.845 81.2748 110.114 78.8852 111.711C76.4955 113.308 73.6861 114.16 70.812 114.16C66.9592 114.157 63.2648 112.625 60.5405 109.9C57.8161 107.176 56.2842 103.482 56.2808 99.6288ZM82.5933 142.848C80.4008 142.851 78.257 142.203 76.4326 140.987C74.6086 139.771 73.1864 138.041 72.3458 136.016C71.5055 133.991 71.2848 131.763 71.7117 129.612C72.1386 127.462 73.1939 125.486 74.7442 123.936C76.2945 122.386 78.2698 121.33 80.4202 120.903C82.5705 120.477 84.7995 120.697 86.8242 121.538C88.8492 122.378 90.5792 123.8 91.7952 125.625C93.0114 127.449 93.6589 129.593 93.6558 131.785C93.6502 134.717 92.4827 137.528 90.4092 139.601C88.3358 141.674 85.5255 142.842 82.5933 142.848ZM102.937 87.91C98.8992 87.9069 94.953 86.7072 91.597 84.4619C88.2411 82.2169 85.6261 79.0272 84.0823 75.2963C82.5386 71.5653 82.1355 67.4603 82.9239 63.5003C83.7123 59.5403 85.657 55.9028 88.5123 53.0478C91.3673 50.1928 95.0048 48.2481 98.9648 47.4597C102.925 46.6709 107.03 47.0741 110.76 48.6178C114.491 50.1616 117.681 52.7769 119.926 56.1328C122.171 59.4888 123.371 63.435 123.375 67.4725C123.371 72.891 121.216 78.086 117.384 81.916C113.552 85.7463 108.355 87.8975 102.937 87.8975V87.91Z" fill="white"/>
</svg>
