<svg viewBox="0 0 24 24" fill="none" xmlns="http://www.w3.org/2000/svg">
  <path
    d="M4 4.00929L4.01012 3.99805M8 4.00929L8.01012 3.99805M12 4.00929L12.0101 3.99805M16 4.00929L16.0101 3.99805M20 4.00929L20.0101 3.99805M4 8.00929L4.01012 7.99805M20 8.00929L20.0101 7.99805M4 12.0093L4.01012 11.998M20 12.0093L20.0101 11.998M4 16.0093L4.01012 15.998M20 16.0093L20.0101 15.998M4 20.0093L4.01012 19.998M8 20.0093L8.01012 19.998M12 20.0093L12.0101 19.998M16 20.0093L16.0101 19.998M20 20.0093L20.0101 19.998"
    stroke="currentColor"
    stroke-width="2"
    stroke-linecap="round"
    stroke-linejoin="round"
  />
  <path
    d="M11 23H23V11L11 23Z"
    fill="currentColor"
    stroke="var(--background)"
    stroke-width="2"
    stroke-linejoin="round"
  />
</svg>
