<svg viewBox="0 0 24 24" version="1.1" xmlns="http://www.w3.org/2000/svg"><path fill="currentColor" d="M15.744 15.122c-1.133-0.074-2.024-1.012-2.024-2.158 0-0.038 0.001-0.077 0.003-0.115l-0 0.005c-0.002-0.036-0.004-0.078-0.004-0.121 0-1.144 0.893-2.078 2.019-2.147l0.006-0c1.132 0.062 2.026 0.994 2.026 2.135 0 0.047-0.002 0.092-0.005 0.138l0-0.006c0.002 0.038 0.004 0.082 0.004 0.126 0 1.142-0.893 2.076-2.02 2.141l-0.006 0zM8.27 15.122c-1.133-0.074-2.024-1.012-2.024-2.158 0-0.038 0.001-0.077 0.003-0.115l-0 0.005c-0.002-0.036-0.004-0.078-0.004-0.121 0-1.144 0.893-2.078 2.019-2.147l0.006-0c1.132 0.062 2.026 0.994 2.026 2.135 0 0.047-0.002 0.092-0.005 0.138l0-0.006c0.002 0.036 0.004 0.078 0.004 0.121 0 1.144-0.893 2.078-2.019 2.147l-0.006 0zM19.795 4.849c-1.322-0.624-2.858-1.118-4.466-1.403l-0.112-0.017c-0.004-0.001-0.008-0.002-0.013-0.002-0.026 0-0.049 0.014-0.061 0.035l-0 0c-0.176 0.308-0.366 0.693-0.538 1.088l-0.032 0.083c-0.773-0.124-1.664-0.194-2.571-0.194s-1.799 0.071-2.668 0.206l0.097-0.013c-0.203-0.473-0.396-0.857-0.61-1.229l0.031 0.058c-0.013-0.022-0.036-0.035-0.062-0.035-0.004 0-0.008 0-0.012 0.001l0.001-0c-1.72 0.302-3.257 0.795-4.692 1.468l0.113-0.048c-0.013 0.005-0.023 0.014-0.030 0.026l-0 0c-2.141 3.031-3.422 6.802-3.422 10.872 0 0.68 0.036 1.352 0.106 2.013l-0.007-0.083c0.002 0.022 0.014 0.04 0.029 0.053l0 0c1.605 1.201 3.471 2.168 5.485 2.804l0.132 0.036c0.006 0.002 0.014 0.003 0.021 0.003 0.024 0 0.045-0.011 0.058-0.029l0 0c0.401-0.54 0.783-1.152 1.114-1.794l0.035-0.075c0.005-0.009 0.008-0.02 0.008-0.032 0-0.031-0.02-0.056-0.047-0.067l-0.001-0c-0.684-0.264-1.262-0.545-1.813-0.868l0.058 0.032c-0.022-0.013-0.036-0.036-0.036-0.062 0-0.023 0.011-0.044 0.029-0.057l0 0c0.118-0.089 0.236-0.18 0.349-0.273 0.012-0.01 0.028-0.016 0.044-0.016 0.011 0 0.020 0.002 0.029 0.006l-0.001-0c1.656 0.796 3.6 1.261 5.652 1.261s3.997-0.465 5.732-1.295l-0.08 0.035c0.009-0.005 0.019-0.007 0.030-0.007 0.017 0 0.032 0.006 0.044 0.016l-0 0c0.113 0.093 0.23 0.186 0.35 0.274 0.017 0.014 0.029 0.035 0.029 0.058 0 0.026-0.014 0.049-0.035 0.062l-0 0c-0.496 0.296-1.074 0.577-1.676 0.809l-0.079 0.027c-0.027 0.011-0.047 0.037-0.047 0.067 0 0.012 0.003 0.023 0.008 0.033l-0-0.001c0.376 0.72 0.757 1.331 1.178 1.911l-0.03-0.043c0.013 0.018 0.035 0.03 0.058 0.03 0.008 0 0.015-0.002 0.022-0.003l-0.001 0c2.149-0.669 4.019-1.637 5.674-2.874l-0.049 0.035c0.017-0.012 0.027-0.031 0.029-0.052l0-0c0.065-0.588 0.102-1.271 0.102-1.961 0-4.061-1.284-7.823-3.467-10.901l0.039 0.059c-0.006-0.012-0.017-0.022-0.029-0.027l-0 0z"></path></svg>