<svg  viewBox="0 0 200 200" xmlns="http://www.w3.org/2000/svg">
<path d="M37.0002 150.6C37.0002 154.067 38.2002 157 40.6002 159.4C43.0002 161.8 46.0002 163.067 49.6002 163.2H74.8002C78.2669 163.2 81.2669 161.934 83.8002 159.4C86.3336 156.867 87.5336 153.934 87.4002 150.6V49.6002C87.4002 46.1336 86.2002 43.1336 83.8002 40.6002C81.4002 38.0669 78.4002 36.8669 74.8002 37.0002H49.6002C46.1336 37.0002 43.1336 38.2002 40.6002 40.6002C38.0669 43.0002 36.8669 46.0002 37.0002 49.6002V150.6ZM112.6 150.6C112.6 154.067 113.867 157 116.4 159.4C118.934 161.8 121.867 163.067 125.2 163.2H150.4C153.867 163.2 156.867 161.934 159.4 159.4C161.934 156.867 163.134 153.934 163 150.6V49.6002C163 46.1336 161.8 43.1336 159.4 40.6002C157 38.0669 154 36.8669 150.4 37.0002H125.2C121.734 37.0002 118.8 38.2002 116.4 40.6002C114 43.0002 112.734 46.0002 112.6 49.6002V150.6Z" fill="currentColor"/>
</svg>
