<svg viewBox="0 0 24 24" xmlns="http://www.w3.org/2000/svg">
  <g transform="translate(12 12) rotate(35) scale(1.06) translate(-12 -12)">
    <path
      fill="currentColor"
      fill-rule="evenodd"
      clip-rule="evenodd"
      d="M12 2.5C15.42 2.77 17.93 5.28 18.2 8.7C18.44 11.74 17.28 14.58 14.7 17.25L13.4 18.59V15.8C13.4 15.03 12.77 14.4 12 14.4C11.23 14.4 10.6 15.03 10.6 15.8V18.59L9.3 17.25C6.72 14.58 5.56 11.74 5.8 8.7C6.07 5.28 8.58 2.77 12 2.5ZM12 6.75C10.9 6.75 10 7.65 10 8.75C10 9.85 10.9 10.75 12 10.75C13.1 10.75 14 9.85 14 8.75C14 7.65 13.1 6.75 12 6.75Z"
    />
    <path
      fill="currentColor"
      d="M9.45 13.95L6.35 15.35L4.7 18.45L8.2 17.3L9.45 13.95Z"
    />
    <path
      fill="currentColor"
      d="M14.55 13.95L17.65 15.35L19.3 18.45L15.8 17.3L14.55 13.95Z"
    />
    <path
      fill="currentColor"
      d="M12 17.2L10.45 20.25L12 21.5L13.55 20.25L12 17.2Z"
    />
  </g>
</svg>
