<svg viewBox="0 0 24 24" xmlns="http://www.w3.org/2000/svg">
  <g transform="translate(12 12) rotate(35) scale(1.06) translate(-12 -12)">
    <path
      fill="currentColor"
      d="M12 1.95L13.88 3.15C15.84 4.4 17.18 6.66 17.36 9.16C17.55 11.72 16.54 14.13 14.38 16.58L13.32 17.78V15.72C13.32 14.97 12.73 14.38 11.98 14.38C11.24 14.38 10.64 14.97 10.64 15.72V17.78L9.58 16.58C7.42 14.13 6.41 11.72 6.6 9.16C6.78 6.66 8.12 4.4 10.08 3.15L12 1.95ZM12 6.44C10.97 6.44 10.13 7.28 10.13 8.31C10.13 9.34 10.97 10.18 12 10.18C13.03 10.18 13.87 9.34 13.87 8.31C13.87 7.28 13.03 6.44 12 6.44Z"
    />
    <path
      fill="currentColor"
      d="M9.38 13.88C9.08 15.13 8.39 16.13 7.51 16.88C6.56 17.7 5.5 18.11 4.66 18.35C4.86 17.5 5.31 16.45 6.18 15.56C7.03 14.7 8.13 14.15 9.38 13.88Z"
    />
    <path
      fill="currentColor"
      d="M14.62 13.88C15.92 14.15 16.97 14.7 17.82 15.56C18.69 16.45 19.14 17.5 19.34 18.35C18.5 18.11 17.44 17.7 16.49 16.88C15.61 16.13 14.92 15.13 14.62 13.88Z"
    />
    <path
      fill="currentColor"
      d="M12 17.14C12.87 17.97 13.39 19.09 13.6 20.18L12 21.52L10.4 20.18C10.61 19.09 11.13 17.97 12 17.14Z"
    />
  </g>
</svg>
