<svg viewBox="0 0 24 24" fill="none" xmlns="http://www.w3.org/2000/svg">
<path d="M6.273 20.9455L6.727 20.0545L6.273 20.9455ZM6.0545 20.727L6.9455 20.273L6.0545 20.727ZM10.9455 20.727L10.0545 20.273L10.9455 20.727ZM10.727 20.9455L10.273 20.0545L10.727 20.9455ZM10.727 16.0545L10.273 16.9455L10.727 16.0545ZM10.9455 16.273L10.0545 16.727L10.9455 16.273ZM6.273 16.0545L6.727 16.9455L6.273 16.0545ZM6.0545 16.273L6.9455 16.727L6.0545 16.273ZM6.273 7.9455L6.727 7.0545L6.273 7.9455ZM6.0545 7.727L6.9455 7.273L6.0545 7.727ZM10.9455 7.727L10.0545 7.273L10.9455 7.727ZM10.727 7.9455L10.273 7.0545L10.727 7.9455ZM10.727 3.0545L10.273 3.9455L10.727 3.0545ZM10.9455 3.273L10.0545 3.727L10.9455 3.273ZM6.273 3.0545L6.727 3.9455L6.273 3.0545ZM6.0545 3.273L6.9455 3.727L6.0545 3.273ZM14 4C13.4477 4 13 4.44772 13 5C13 5.55228 13.4477 6 14 6V4ZM14 17.5C13.4477 17.5 13 17.9477 13 18.5C13 19.0523 13.4477 19.5 14 19.5V17.5ZM17.282 17.408L18.173 17.862L17.282 17.408ZM16.408 18.282L16.862 19.173L16.408 18.282ZM6.8 17H10.2V15H6.8V17ZM10 16.8V20.2H12V16.8H10ZM10.2 20H6.8V22H10.2V20ZM7 20.2V16.8H5V20.2H7ZM6.8 20C6.72771 20 6.67499 20 6.63028 19.9993C6.58554 19.9986 6.56319 19.9973 6.55303 19.9965C6.54326 19.9957 6.55946 19.9964 6.59032 20.0036C6.62435 20.0116 6.67267 20.0268 6.727 20.0545L5.81901 21.8365C6.03696 21.9476 6.24495 21.978 6.39017 21.9899C6.52371 22.0008 6.67649 22 6.8 22V20ZM5 20.2C5 20.3235 4.99922 20.4763 5.01013 20.6098C5.022 20.755 5.05244 20.963 5.16349 21.181L6.9455 20.273C6.97318 20.3273 6.98835 20.3757 6.99636 20.4097C7.00363 20.4405 7.00429 20.4567 7.00349 20.447C7.00266 20.4368 7.00143 20.4145 7.00073 20.3697C7.00003 20.325 7 20.2723 7 20.2H5ZM6.727 20.0545C6.82108 20.1024 6.89757 20.1789 6.9455 20.273L5.16349 21.181C5.3073 21.4632 5.53677 21.6927 5.81901 21.8365L6.727 20.0545ZM10 20.2C10 20.2723 9.99997 20.325 9.99927 20.3697C9.99857 20.4145 9.99734 20.4368 9.99651 20.447C9.99571 20.4567 9.99637 20.4405 10.0036 20.4097C10.0116 20.3757 10.0268 20.3273 10.0545 20.273L11.8365 21.181C11.9476 20.963 11.978 20.755 11.9899 20.6098C12.0008 20.4763 12 20.3235 12 20.2H10ZM10.2 22C10.3235 22 10.4763 22.0008 10.6098 21.9899C10.755 21.978 10.963 21.9476 11.181 21.8365L10.273 20.0545C10.3273 20.0268 10.3757 20.0116 10.4097 20.0036C10.4405 19.9964 10.4567 19.9957 10.447 19.9965C10.4368 19.9973 10.4145 19.9986 10.3697 19.9993C10.325 20 10.2723 20 10.2 20V22ZM10.0545 20.273C10.1024 20.1789 10.1789 20.1024 10.273 20.0545L11.181 21.8365C11.4632 21.6927 11.6927 21.4632 11.8365 21.181L10.0545 20.273ZM10.2 17C10.2723 17 10.325 17 10.3697 17.0007C10.4145 17.0014 10.4368 17.0027 10.447 17.0035C10.4567 17.0043 10.4405 17.0036 10.4097 16.9964C10.3757 16.9884 10.3273 16.9732 10.273 16.9455L11.181 15.1635C10.963 15.0524 10.755 15.022 10.6098 15.0101C10.4763 14.9992 10.3235 15 10.2 15V17ZM12 16.8C12 16.6765 12.0008 16.5237 11.9899 16.3902C11.978 16.245 11.9476 16.037 11.8365 15.819L10.0545 16.727C10.0268 16.6727 10.0116 16.6243 10.0036 16.5903C9.99637 16.5595 9.99571 16.5433 9.99651 16.553C9.99734 16.5632 9.99857 16.5855 9.99927 16.6303C9.99997 16.675 10 16.7277 10 16.8H12ZM10.273 16.9455C10.1789 16.8976 10.1024 16.8211 10.0545 16.727L11.8365 15.819C11.6927 15.5368 11.4632 15.3073 11.181 15.1635L10.273 16.9455ZM6.8 15C6.67649 15 6.52371 14.9992 6.39017 15.0101C6.24495 15.022 6.03696 15.0524 5.81901 15.1635L6.727 16.9455C6.67267 16.9732 6.62435 16.9884 6.59032 16.9964C6.55946 17.0036 6.54326 17.0043 6.55303 17.0035C6.56319 17.0027 6.58554 17.0014 6.63028 17.0007C6.67499 17 6.72771 17 6.8 17V15ZM7 16.8C7 16.7277 7.00003 16.675 7.00073 16.6303C7.00143 16.5855 7.00266 16.5632 7.00349 16.553C7.00429 16.5433 7.00363 16.5595 6.99636 16.5903C6.98835 16.6243 6.97318 16.6727 6.9455 16.727L5.16349 15.819C5.05244 16.037 5.022 16.245 5.01013 16.3902C4.99922 16.5237 5 16.6765 5 16.8H7ZM5.81901 15.1635C5.53677 15.3073 5.3073 15.5368 5.16349 15.819L6.9455 16.727C6.89757 16.8211 6.82108 16.8976 6.727 16.9455L5.81901 15.1635ZM6.8 4H10.2V2H6.8V4ZM10 3.8V7.2H12V3.8H10ZM10.2 7H6.8V9H10.2V7ZM7 7.2V3.8H5V7.2H7ZM6.8 7C6.72771 7 6.67499 6.99997 6.63028 6.99927C6.58554 6.99857 6.56319 6.99734 6.55303 6.99651C6.54326 6.99571 6.55946 6.99637 6.59032 7.00364C6.62435 7.01165 6.67267 7.02682 6.727 7.0545L5.81901 8.83651C6.03696 8.94756 6.24495 8.978 6.39017 8.98987C6.52371 9.00078 6.67649 9 6.8 9V7ZM5 7.2C5 7.32351 4.99922 7.47629 5.01013 7.60983C5.022 7.75505 5.05244 7.96304 5.16349 8.18099L6.9455 7.273C6.97318 7.32733 6.98835 7.37565 6.99636 7.40968C7.00363 7.44054 7.00429 7.45674 7.00349 7.44697C7.00266 7.43681 7.00143 7.41446 7.00073 7.36972C7.00003 7.32501 7 7.27229 7 7.2H5ZM6.727 7.0545C6.82108 7.10243 6.89757 7.17892 6.9455 7.273L5.16349 8.18099C5.3073 8.46323 5.53677 8.6927 5.81901 8.83651L6.727 7.0545ZM10 7.2C10 7.27229 9.99997 7.32501 9.99927 7.36972C9.99857 7.41446 9.99734 7.43681 9.99651 7.44697C9.99571 7.45674 9.99637 7.44054 10.0036 7.40968C10.0116 7.37565 10.0268 7.32733 10.0545 7.273L11.8365 8.18099C11.9476 7.96304 11.978 7.75505 11.9899 7.60983C12.0008 7.47629 12 7.32351 12 7.2H10ZM10.2 9C10.3235 9 10.4763 9.00078 10.6098 8.98987C10.755 8.978 10.963 8.94756 11.181 8.83651L10.273 7.0545C10.3273 7.02682 10.3757 7.01165 10.4097 7.00364C10.4405 6.99637 10.4567 6.99571 10.447 6.99651C10.4368 6.99734 10.4145 6.99857 10.3697 6.99927C10.325 6.99997 10.2723 7 10.2 7V9ZM10.0545 7.273C10.1024 7.17892 10.1789 7.10243 10.273 7.0545L11.181 8.83651C11.4632 8.6927 11.6927 8.46323 11.8365 8.18099L10.0545 7.273ZM10.2 4C10.2723 4 10.325 4.00003 10.3697 4.00073C10.4145 4.00143 10.4368 4.00266 10.447 4.00349C10.4567 4.00429 10.4405 4.00363 10.4097 3.99636C10.3757 3.98835 10.3273 3.97318 10.273 3.9455L11.181 2.16349C10.963 2.05244 10.755 2.022 10.6098 2.01013C10.4763 1.99922 10.3235 2 10.2 2V4ZM12 3.8C12 3.67649 12.0008 3.52371 11.9899 3.39017C11.978 3.24495 11.9476 3.03696 11.8365 2.81901L10.0545 3.727C10.0268 3.67267 10.0116 3.62435 10.0036 3.59032C9.99637 3.55946 9.99571 3.54326 9.99651 3.55303C9.99734 3.56319 9.99857 3.58554 9.99927 3.63028C9.99997 3.67499 10 3.72771 10 3.8H12ZM10.273 3.9455C10.1789 3.89757 10.1024 3.82108 10.0545 3.727L11.8365 2.81901C11.6927 2.53677 11.4632 2.3073 11.181 2.16349L10.273 3.9455ZM6.8 2C6.67649 2 6.52371 1.99922 6.39017 2.01013C6.24495 2.022 6.03696 2.05244 5.81901 2.16349L6.727 3.9455C6.67267 3.97318 6.62435 3.98835 6.59032 3.99636C6.55946 4.00363 6.54326 4.00429 6.55303 4.00349C6.56319 4.00266 6.58554 4.00143 6.63028 4.00073C6.67499 4.00003 6.72771 4 6.8 4V2ZM7 3.8C7 3.72771 7.00003 3.67499 7.00073 3.63028C7.00143 3.58554 7.00266 3.56319 7.00349 3.55303C7.00429 3.54326 7.00363 3.55946 6.99636 3.59032C6.98835 3.62435 6.97318 3.67267 6.9455 3.727L5.16349 2.81901C5.05244 3.03696 5.022 3.24495 5.01013 3.39017C4.99922 3.52371 5 3.67649 5 3.8H7ZM5.81901 2.16349C5.53677 2.3073 5.3073 2.53677 5.16349 2.81901L6.9455 3.727C6.89757 3.82108 6.82108 3.89757 6.727 3.9455L5.81901 2.16349ZM16.5 12.5V15.3H18.5V12.5H16.5ZM14.3 17.5H14V19.5H14.3V17.5ZM18.5 12.5V9.5H16.5V12.5H18.5ZM16.5 6.75V9.5H18.5V6.75H16.5ZM14 6H15.75V4H14V6ZM18.5 6.75C18.5 5.23122 17.2688 4 15.75 4V6C16.1642 6 16.5 6.33579 16.5 6.75H18.5ZM16.5 15.3C16.5 15.8766 16.4992 16.2488 16.4761 16.5322C16.4539 16.8038 16.4162 16.9045 16.391 16.954L18.173 17.862C18.3658 17.4836 18.4371 17.0904 18.4694 16.695C18.5008 16.3114 18.5 15.8436 18.5 15.3H16.5ZM14.3 19.5C14.8436 19.5 15.3114 19.5008 15.695 19.4694C16.0904 19.4371 16.4836 19.3658 16.862 19.173L15.954 17.391C15.9045 17.4162 15.8038 17.4539 15.5322 17.4761C15.2488 17.4992 14.8766 17.5 14.3 17.5V19.5ZM16.391 16.954C16.2951 17.1422 16.1422 17.2951 15.954 17.391L16.862 19.173C17.4265 18.8854 17.8854 18.4265 18.173 17.862L16.391 16.954Z" fill="white"/>
</svg>
