<svg viewBox="0 0 200 200" fill="none" xmlns="http://www.w3.org/2000/svg">
<g clip-path="url(#clip0_895_62)">
<path d="M167.023 24H68.3409C57.8806 24 49.3636 36.7908 49.3636 52.5V122.8H37.9773C27.517 122.8 19 134.732 19 149.4C19 164.068 27.517 176 37.9773 176H136.659C147.119 176 155.636 163.209 155.636 147.5V77.2H167.023C177.483 77.2 186 65.268 186 50.6C186 35.932 177.483 24 167.023 24ZM37.9773 168.4C31.9121 168.4 26.5909 159.523 26.5909 149.4C26.5909 139.277 31.9121 130.4 37.9773 130.4H121.91C119.063 136.324 117.616 142.826 117.682 149.4C117.614 155.98 119.077 162.485 121.955 168.4H37.9773ZM167.023 69.6H155.636V52.5C155.447 45.0456 157.636 37.7249 161.884 31.6H167.023C173.088 31.6 178.409 40.4768 178.409 50.6C178.409 60.7232 173.088 69.6 167.023 69.6ZM72.1364 54.4H132.864V62H72.1364V54.4ZM72.1364 77.2H132.864V84.8H72.1364V77.2ZM72.1364 100H132.864V107.6H72.1364V100Z" fill="white"/>
</g>
<defs>
<clipPath id="clip0_895_62">
<rect width="200" height="200" fill="white"/>
</clipPath>
</defs>
</svg>
